<svg width="60" height="56" viewBox="0 0 60 56" fill="none" xmlns="http://www.w3.org/2000/svg">
<path d="M28 1.5C13.3645 1.5 1.5 13.3645 1.5 28C1.5 42.6355 13.3645 54.5 28 54.5C42.6355 54.5 54.5 42.6355 54.5 28C54.5 27.1724 54.4621 26.3537 54.3879 25.5457L55.3837 25.4543C55.4607 26.2927 55.5 27.1418 55.5 28C55.5 43.1878 43.1878 55.5 28 55.5C12.8122 55.5 0.5 43.1878 0.5 28C0.5 12.8122 12.8122 0.5 28 0.5C33.6525 0.5 38.9081 2.20594 43.2781 5.13114L42.7219 5.96215C38.5113 3.14369 33.4484 1.5 28 1.5Z" fill="black"/>
<path d="M59.3507 9.35642L28.0037 40.1977L14.1532 26.8602L14.8468 26.1398L27.9963 38.8023L58.6493 8.64358L59.3507 9.35642Z" fill="black"/>
</svg>
