<svg width="39" height="39" viewBox="0 0 39 39" fill="none" xmlns="http://www.w3.org/2000/svg">
<path d="M0.121875 8.66531C0.367619 7.58853 0.971722 6.62711 1.83525 5.9385C2.69877 5.2499 3.77053 4.87493 4.875 4.875H34.125C35.2295 4.87493 36.3012 5.2499 37.1648 5.9385C38.0283 6.62711 38.6324 7.58853 38.8781 8.66531L19.5 20.5091L0.121875 8.66531ZM0 11.4489V28.7649L14.1448 20.0923L0 11.4489ZM16.4799 21.5231L0.465562 31.3389C0.861234 32.1733 1.48572 32.878 2.26634 33.3713C3.04696 33.8645 3.95161 34.1259 4.875 34.125H34.125C35.0482 34.1252 35.9525 33.8632 36.7327 33.3696C37.5129 32.8759 38.1369 32.1709 38.532 31.3365L22.5176 21.5207L19.5 23.3659L16.4799 21.5231ZM24.8552 20.0948L39 28.7649V11.4489L24.8552 20.0923V20.0948Z" fill="black"/>
</svg>
