<svg width="221" height="76" viewBox="0 0 221 76" fill="none" xmlns="http://www.w3.org/2000/svg">
<path d="M1.60893 0.0120108C1.33942 -0.0481516 1.07217 0.121557 1.01201 0.391066L0.0316089 4.78297C-0.0285535 5.05248 0.141156 5.31973 0.410665 5.37989C0.680174 5.44005 0.947425 5.27035 1.00759 5.00084L1.87906 1.09692L5.78297 1.96839C6.05248 2.02855 6.31973 1.85884 6.37989 1.58934C6.44005 1.31983 6.27035 1.05257 6.00084 0.992413L1.60893 0.0120108ZM220 13.5C219.641 13.1521 219.641 13.1522 219.641 13.1525C219.64 13.1528 219.64 13.1533 219.639 13.1539C219.638 13.1553 219.636 13.1573 219.633 13.1601C219.628 13.1657 219.619 13.1741 219.608 13.1854C219.586 13.208 219.553 13.2418 219.509 13.2867C219.421 13.3763 219.289 13.5097 219.114 13.6837C218.765 14.0318 218.247 14.5426 217.572 15.1911C216.221 16.4883 214.242 18.3367 211.733 20.5382C206.713 24.9419 199.575 30.7554 191.098 36.3962C174.121 47.6937 151.876 58.2301 130.563 55.504L130.437 56.496C152.124 59.2699 174.629 48.5563 191.652 37.2288C200.175 31.5571 207.349 25.7144 212.392 21.2899C214.914 19.0774 216.904 17.2187 218.264 15.9124C218.944 15.2592 219.467 14.744 219.82 14.3917C219.997 14.2155 220.131 14.0801 220.222 13.9884C220.267 13.9426 220.301 13.9077 220.324 13.8841C220.335 13.8724 220.344 13.8634 220.35 13.8574C220.353 13.8543 220.355 13.852 220.357 13.8505C220.357 13.8497 220.358 13.849 220.358 13.8486C220.359 13.8482 220.359 13.8479 220 13.5ZM130.563 55.504C119.879 54.1374 112.681 50.8221 108.346 46.6776C104.022 42.5442 102.519 37.5647 103.244 32.7621C104.698 23.1309 115.179 14 130.5 14V13C114.821 13 103.802 22.3691 102.256 32.6129C101.481 37.7478 103.103 43.0496 107.654 47.4005C112.194 51.7404 119.621 55.1126 130.437 56.496L130.563 55.504ZM130.5 14C138.057 14 143.693 17.7376 147.451 23.3863C151.219 29.0506 153.093 36.6346 153.062 44.248C153.032 51.8612 151.096 59.4468 147.311 65.1129C143.535 70.7649 137.93 74.5 130.5 74.5V75.5C138.32 75.5 144.215 71.5476 148.142 65.6684C152.06 59.8032 154.031 52.0138 154.062 44.252C154.094 36.4904 152.187 28.6994 148.283 22.8324C144.37 16.9499 138.443 13 130.5 13V14ZM130.5 74.5C122.955 74.5 112.688 72.3013 101.121 68.3713C89.562 64.4445 76.7383 58.8008 64.0898 51.9382C38.7754 38.2037 14.2393 19.6286 1.92209 0.231967L1.07791 0.768033C13.531 20.3786 38.2448 39.0535 63.6129 52.8172C76.3056 59.7037 89.1812 65.3712 100.799 69.3182C112.408 73.2621 122.795 75.5 130.5 75.5V74.5Z" fill="black"/>
</svg>
