<svg width="49" height="49" viewBox="0 0 49 49" fill="none" xmlns="http://www.w3.org/2000/svg">
<path id="circle" fill-rule="evenodd" clip-rule="evenodd"
                            d="M24 13.25C18.0629 13.25 13.25 18.0629 13.25 24C13.25 29.9371 18.0629 34.75 24 34.75C29.9371 34.75 34.75 29.9371 34.75 24C34.75 18.0629 29.9371 13.25 24 13.25ZM14.75 24C14.75 18.8914 18.8914 14.75 24 14.75C29.1086 14.75 33.25 18.8914 33.25 24C33.25 29.1086 29.1086 33.25 24 33.25C18.8914 33.25 14.75 29.1086 14.75 24Z" />
                        <path id="sun" fill-rule="evenodd" clip-rule="evenodd"
                            d="M24.5 0.939331L18.1893 7.24998H7.24999V18.1893L0.939331 24.5L7.24999 30.8106V40.75H17.1893L24.5 48.0606L31.8106 40.75H40.75V31.8106L48.0606 24.5L40.75 17.1893V7.24998H30.8106L24.5 0.939331ZM24.5 3.06065L30.1893 8.74998H39.25V17.8107L45.9393 24.5L39.25 31.1893V39.25H31.1893L24.5 45.9393L17.8107 39.25H8.74999V30.1893L3.06065 24.5L8.74999 18.8106V8.74998H18.8107L24.5 3.06065Z" />
                        <path id="darkSide"
                            d="M24 14.75C18.8914 14.75 14.75 18.8914 14.75 24C14.75 29.1086 18.8914 33.25 24 33.25V14.75Z" />
                        <path id="lightSide"
                            d="M33.25 24C33.25 18.8914 29.1086 14.75 24 14.75V33.25C29.1086 33.25 33.25 29.1086 33.25 24Z" />
</svg>
